<mxfile host="app.diagrams.net" modified="2023-05-11T16:51:55.334Z" agent="Mozilla/5.0 (Windows NT 10.0; Win64; x64) AppleWebKit/537.36 (KHTML, like Gecko) Chrome/112.0.0.0 Safari/537.36" etag="Wxnj5y0T6jg8_VinFGyo" version="21.2.9" type="google" pages="2">
  <diagram name="Communication" id="xxAJR3m0hG1HvDiBtMEF">
    <mxGraphModel grid="1" page="1" gridSize="10" guides="1" tooltips="1" connect="1" arrows="1" fold="1" pageScale="1" pageWidth="1200" pageHeight="1600" math="0" shadow="0">
      <root>
        <mxCell id="0" />
        <mxCell id="1" parent="0" />
        <mxCell id="aFOcVx54GG5W4jtS17l8-2" value="회사 회원은 자신이 등록한 채용 정보 중에서 원하는 지원자 수에 도달한 경우 채용을 조기 마감 처리할 수 있다." style="text;whiteSpace=wrap;html=1;" vertex="1" parent="1">
          <mxGeometry x="50" y="30" width="740" height="30" as="geometry" />
        </mxCell>
        <mxCell id="aFOcVx54GG5W4jtS17l8-3" value="" style="endArrow=classic;html=1;rounded=0;" edge="1" parent="1">
          <mxGeometry width="50" height="50" relative="1" as="geometry">
            <mxPoint x="120" y="161" as="sourcePoint" />
            <mxPoint x="180" y="161" as="targetPoint" />
          </mxGeometry>
        </mxCell>
        <mxCell id="aFOcVx54GG5W4jtS17l8-4" value="" style="verticalLabelPosition=bottom;html=1;verticalAlign=top;strokeWidth=2;shape=mxgraph.lean_mapping.physical_pull;pointerEvents=1;" vertex="1" parent="1">
          <mxGeometry x="90" y="201" width="50" height="50" as="geometry" />
        </mxCell>
        <mxCell id="aFOcVx54GG5W4jtS17l8-5" value="" style="rounded=0;whiteSpace=wrap;html=1;strokeWidth=2;" vertex="1" parent="1">
          <mxGeometry x="50" y="70" width="1280" height="400" as="geometry" />
        </mxCell>
        <mxCell id="aFOcVx54GG5W4jtS17l8-6" value="" style="rounded=0;whiteSpace=wrap;html=1;strokeWidth=2;" vertex="1" parent="1">
          <mxGeometry x="50" y="70" width="200" height="40" as="geometry" />
        </mxCell>
        <mxCell id="aFOcVx54GG5W4jtS17l8-7" value="&lt;font style=&quot;font-size: 16px;&quot;&gt;&lt;b&gt;sd Close Hire info&lt;/b&gt;&lt;/font&gt;" style="text;html=1;resizable=0;autosize=1;align=center;verticalAlign=middle;points=[];fillColor=none;strokeColor=none;rounded=0;strokeWidth=2;" vertex="1" parent="1">
          <mxGeometry x="70" y="75" width="160" height="30" as="geometry" />
        </mxCell>
        <mxCell id="aFOcVx54GG5W4jtS17l8-8" value="companyUser" style="shape=umlActor;verticalLabelPosition=bottom;verticalAlign=top;html=1;outlineConnect=0;" vertex="1" parent="1">
          <mxGeometry x="280" y="151" width="40" height="80" as="geometry" />
        </mxCell>
        <mxCell id="aFOcVx54GG5W4jtS17l8-9" value=":CloseHireInfoUI" style="text;html=1;resizable=0;autosize=1;align=center;verticalAlign=middle;points=[];fillColor=none;strokeColor=none;rounded=0;" vertex="1" parent="1">
          <mxGeometry x="514" y="221" width="110" height="30" as="geometry" />
        </mxCell>
        <mxCell id="aFOcVx54GG5W4jtS17l8-10" value="" style="shape=umlBoundary;whiteSpace=wrap;html=1;" vertex="1" parent="1">
          <mxGeometry x="519" y="141" width="100" height="80" as="geometry" />
        </mxCell>
        <mxCell id="aFOcVx54GG5W4jtS17l8-18" value="" style="endArrow=none;html=1;rounded=0;strokeWidth=2;exitX=0.667;exitY=0.34;exitDx=0;exitDy=0;exitPerimeter=0;" edge="1" parent="1">
          <mxGeometry width="50" height="50" relative="1" as="geometry">
            <mxPoint x="499" y="200.5" as="sourcePoint" />
            <mxPoint x="339" y="200" as="targetPoint" />
          </mxGeometry>
        </mxCell>
        <mxCell id="aFOcVx54GG5W4jtS17l8-30" value="&lt;span style=&quot;color: rgb(0, 0, 0); font-family: Helvetica; font-size: 12px; font-style: normal; font-variant-ligatures: normal; font-variant-caps: normal; font-weight: 400; letter-spacing: normal; orphans: 2; text-align: left; text-indent: 0px; text-transform: none; widows: 2; word-spacing: 0px; -webkit-text-stroke-width: 0px; background-color: rgb(251, 251, 251); text-decoration-thickness: initial; text-decoration-style: initial; text-decoration-color: initial; float: none; display: inline !important;&quot;&gt;또한, 마감일이 지났거나 마감 처리된 채용 정보 내역을 조회할 수 있다. 이때 마감일의 오름차순으로 정렬해서 출력하며 각 채용 정보에 대해 업무, 신청 마감일 정보를 출력한다.&lt;/span&gt;" style="text;whiteSpace=wrap;html=1;" vertex="1" parent="1">
          <mxGeometry x="50" y="590" width="990" height="50" as="geometry" />
        </mxCell>
        <mxCell id="7LoVjZV86ifziQox83zd-1" value="" style="rounded=0;whiteSpace=wrap;html=1;strokeWidth=2;" vertex="1" parent="1">
          <mxGeometry x="50" y="620" width="1250" height="410" as="geometry" />
        </mxCell>
        <mxCell id="7LoVjZV86ifziQox83zd-2" value="companyUser" style="shape=umlActor;verticalLabelPosition=bottom;verticalAlign=top;html=1;outlineConnect=0;" vertex="1" parent="1">
          <mxGeometry x="290" y="730" width="40" height="80" as="geometry" />
        </mxCell>
        <mxCell id="7LoVjZV86ifziQox83zd-3" value="" style="rounded=0;whiteSpace=wrap;html=1;strokeWidth=2;" vertex="1" parent="1">
          <mxGeometry x="50" y="620" width="240" height="40" as="geometry" />
        </mxCell>
        <mxCell id="7LoVjZV86ifziQox83zd-4" value="&lt;font style=&quot;font-size: 16px;&quot;&gt;&lt;b&gt;sd Show Closed Hire info&lt;/b&gt;&lt;/font&gt;" style="text;html=1;resizable=0;autosize=1;align=center;verticalAlign=middle;points=[];fillColor=none;strokeColor=none;rounded=0;strokeWidth=2;" vertex="1" parent="1">
          <mxGeometry x="60" y="625" width="220" height="30" as="geometry" />
        </mxCell>
        <mxCell id="7LoVjZV86ifziQox83zd-6" value="" style="endArrow=none;html=1;rounded=0;strokeWidth=2;" edge="1" parent="1">
          <mxGeometry width="50" height="50" relative="1" as="geometry">
            <mxPoint x="490" y="770" as="sourcePoint" />
            <mxPoint x="360" y="770" as="targetPoint" />
          </mxGeometry>
        </mxCell>
        <mxCell id="7LoVjZV86ifziQox83zd-7" value="" style="shape=umlBoundary;whiteSpace=wrap;html=1;" vertex="1" parent="1">
          <mxGeometry x="500" y="730" width="100" height="80" as="geometry" />
        </mxCell>
        <mxCell id="7LoVjZV86ifziQox83zd-10" value="" style="ellipse;shape=umlControl;whiteSpace=wrap;html=1;" vertex="1" parent="1">
          <mxGeometry x="790" y="730" width="70" height="80" as="geometry" />
        </mxCell>
        <mxCell id="7LoVjZV86ifziQox83zd-14" value="" style="endArrow=none;html=1;rounded=0;strokeWidth=2;" edge="1" parent="1">
          <mxGeometry width="50" height="50" relative="1" as="geometry">
            <mxPoint x="749" y="769.5" as="sourcePoint" />
            <mxPoint x="619" y="769.5" as="targetPoint" />
          </mxGeometry>
        </mxCell>
        <mxCell id="7LoVjZV86ifziQox83zd-15" value="" style="ellipse;shape=umlEntity;whiteSpace=wrap;html=1;" vertex="1" parent="1">
          <mxGeometry x="785" y="904" width="80" height="80" as="geometry" />
        </mxCell>
        <mxCell id="7LoVjZV86ifziQox83zd-16" value=":HireInfo" style="text;html=1;resizable=0;autosize=1;align=center;verticalAlign=middle;points=[];fillColor=none;strokeColor=none;rounded=0;" vertex="1" parent="1">
          <mxGeometry x="795" y="984" width="70" height="30" as="geometry" />
        </mxCell>
        <mxCell id="7LoVjZV86ifziQox83zd-17" value="1: *[For all companyUser&#39;s Closed&amp;nbsp;HireInfos]: getHireInfo()" style="text;html=1;align=center;verticalAlign=middle;resizable=0;points=[];autosize=1;strokeColor=none;fillColor=none;" vertex="1" parent="1">
          <mxGeometry x="833" y="850" width="330" height="30" as="geometry" />
        </mxCell>
        <mxCell id="7LoVjZV86ifziQox83zd-18" value="" style="endArrow=classic;html=1;rounded=0;strokeWidth=2;" edge="1" parent="1">
          <mxGeometry width="50" height="50" relative="1" as="geometry">
            <mxPoint x="830" y="844" as="sourcePoint" />
            <mxPoint x="830" y="894" as="targetPoint" />
          </mxGeometry>
        </mxCell>
        <mxCell id="7LoVjZV86ifziQox83zd-19" value="" style="endArrow=classic;html=1;rounded=0;strokeWidth=2;" edge="1" parent="1">
          <mxGeometry width="50" height="50" relative="1" as="geometry">
            <mxPoint x="760" y="786" as="sourcePoint" />
            <mxPoint x="610" y="786" as="targetPoint" />
          </mxGeometry>
        </mxCell>
        <mxCell id="7LoVjZV86ifziQox83zd-20" value="3: startInterface()" style="text;html=1;align=center;verticalAlign=middle;resizable=0;points=[];autosize=1;strokeColor=none;fillColor=none;" vertex="1" parent="1">
          <mxGeometry x="625" y="788" width="110" height="30" as="geometry" />
        </mxCell>
        <mxCell id="7LoVjZV86ifziQox83zd-21" value="" style="endArrow=none;html=1;rounded=0;strokeWidth=2;" edge="1" parent="1">
          <mxGeometry width="50" height="50" relative="1" as="geometry">
            <mxPoint x="814" y="895" as="sourcePoint" />
            <mxPoint x="813" y="845" as="targetPoint" />
          </mxGeometry>
        </mxCell>
        <mxCell id="7LoVjZV86ifziQox83zd-22" value=":showClosedHireInfoUI" style="text;html=1;resizable=0;autosize=1;align=left;verticalAlign=middle;points=[];fillColor=none;strokeColor=none;rounded=0;" vertex="1" parent="1">
          <mxGeometry x="480" y="810" width="150" height="30" as="geometry" />
        </mxCell>
        <mxCell id="7LoVjZV86ifziQox83zd-23" value=":showClosedHireInfo" style="text;html=1;resizable=0;autosize=1;align=left;verticalAlign=middle;points=[];fillColor=none;strokeColor=none;rounded=0;" vertex="1" parent="1">
          <mxGeometry x="755" y="810" width="130" height="30" as="geometry" />
        </mxCell>
        <mxCell id="7LoVjZV86ifziQox83zd-24" value="" style="verticalLabelPosition=bottom;html=1;verticalAlign=top;strokeWidth=2;shape=mxgraph.lean_mapping.physical_pull;pointerEvents=1;rotation=-180;" vertex="1" parent="1">
          <mxGeometry x="860" y="730" width="40" height="30" as="geometry" />
        </mxCell>
        <mxCell id="7LoVjZV86ifziQox83zd-25" value="2: sortByClosedDate()" style="text;html=1;align=center;verticalAlign=middle;resizable=0;points=[];autosize=1;strokeColor=none;fillColor=none;" vertex="1" parent="1">
          <mxGeometry x="875" y="700" width="140" height="30" as="geometry" />
        </mxCell>
        <mxCell id="mKIromGknHr_oH8rrsrf-1" value="" style="endArrow=classic;html=1;rounded=0;strokeWidth=2;" edge="1" parent="1">
          <mxGeometry width="50" height="50" relative="1" as="geometry">
            <mxPoint x="345" y="180.5" as="sourcePoint" />
            <mxPoint x="495" y="180.5" as="targetPoint" />
          </mxGeometry>
        </mxCell>
        <mxCell id="mKIromGknHr_oH8rrsrf-3" value="" style="endArrow=none;html=1;rounded=0;strokeWidth=2;" edge="1" parent="1">
          <mxGeometry width="50" height="50" relative="1" as="geometry">
            <mxPoint x="779" y="190.5" as="sourcePoint" />
            <mxPoint x="649" y="190.5" as="targetPoint" />
          </mxGeometry>
        </mxCell>
        <mxCell id="mKIromGknHr_oH8rrsrf-4" value="" style="endArrow=classic;html=1;rounded=0;strokeWidth=2;" edge="1" parent="1">
          <mxGeometry width="50" height="50" relative="1" as="geometry">
            <mxPoint x="790" y="210" as="sourcePoint" />
            <mxPoint x="640" y="210" as="targetPoint" />
          </mxGeometry>
        </mxCell>
        <mxCell id="mKIromGknHr_oH8rrsrf-5" value="2:startInterface()" style="text;html=1;resizable=0;autosize=1;align=left;verticalAlign=middle;points=[];fillColor=none;strokeColor=none;rounded=0;" vertex="1" parent="1">
          <mxGeometry x="645" y="210.5" width="110" height="30" as="geometry" />
        </mxCell>
        <mxCell id="mKIromGknHr_oH8rrsrf-6" value="" style="ellipse;shape=umlControl;whiteSpace=wrap;html=1;" vertex="1" parent="1">
          <mxGeometry x="820" y="137" width="70" height="80" as="geometry" />
        </mxCell>
        <mxCell id="mKIromGknHr_oH8rrsrf-7" value=":CloseHireInfo" style="text;html=1;resizable=0;autosize=1;align=center;verticalAlign=middle;points=[];fillColor=none;strokeColor=none;rounded=0;" vertex="1" parent="1">
          <mxGeometry x="805" y="217" width="100" height="30" as="geometry" />
        </mxCell>
        <mxCell id="mKIromGknHr_oH8rrsrf-8" value="&lt;span style=&quot;color: rgb(0, 0, 0); font-family: Helvetica; font-size: 12px; font-style: normal; font-variant-ligatures: normal; font-variant-caps: normal; font-weight: 400; letter-spacing: normal; orphans: 2; text-align: center; text-indent: 0px; text-transform: none; widows: 2; word-spacing: 0px; -webkit-text-stroke-width: 0px; background-color: rgb(251, 251, 251); text-decoration-thickness: initial; text-decoration-style: initial; text-decoration-color: initial; float: none; display: inline !important;&quot;&gt;1:&amp;nbsp;&lt;/span&gt;*[For all companyUser&#39;s&amp;nbsp;HireInfos]: getHireInfo()&lt;br style=&quot;border-color: var(--border-color); color: rgb(0, 0, 0); font-family: Helvetica; font-size: 12px; font-style: normal; font-variant-ligatures: normal; font-variant-caps: normal; font-weight: 400; letter-spacing: normal; orphans: 2; text-align: center; text-indent: 0px; text-transform: none; widows: 2; word-spacing: 0px; -webkit-text-stroke-width: 0px; background-color: rgb(251, 251, 251); text-decoration-thickness: initial; text-decoration-style: initial; text-decoration-color: initial;&quot;&gt;&lt;span style=&quot;color: rgb(0, 0, 0); font-family: Helvetica; font-size: 12px; font-style: normal; font-variant-ligatures: normal; font-variant-caps: normal; font-weight: 400; letter-spacing: normal; orphans: 2; text-align: center; text-indent: 0px; text-transform: none; widows: 2; word-spacing: 0px; -webkit-text-stroke-width: 0px; background-color: rgb(251, 251, 251); text-decoration-thickness: initial; text-decoration-style: initial; text-decoration-color: initial; float: none; display: inline !important;&quot;&gt;3.1.1: setClose()&lt;/span&gt;" style="text;whiteSpace=wrap;html=1;" vertex="1" parent="1">
          <mxGeometry x="880" y="250" width="390" height="50" as="geometry" />
        </mxCell>
        <mxCell id="mKIromGknHr_oH8rrsrf-9" value="" style="endArrow=none;html=1;rounded=0;strokeWidth=2;" edge="1" parent="1">
          <mxGeometry width="50" height="50" relative="1" as="geometry">
            <mxPoint x="844" y="300" as="sourcePoint" />
            <mxPoint x="843" y="250" as="targetPoint" />
          </mxGeometry>
        </mxCell>
        <mxCell id="mKIromGknHr_oH8rrsrf-10" value="" style="endArrow=classic;html=1;rounded=0;strokeWidth=2;" edge="1" parent="1">
          <mxGeometry width="50" height="50" relative="1" as="geometry">
            <mxPoint x="860" y="254" as="sourcePoint" />
            <mxPoint x="860" y="304" as="targetPoint" />
          </mxGeometry>
        </mxCell>
        <mxCell id="mKIromGknHr_oH8rrsrf-11" value="" style="ellipse;shape=umlEntity;whiteSpace=wrap;html=1;" vertex="1" parent="1">
          <mxGeometry x="820" y="310" width="70" height="70" as="geometry" />
        </mxCell>
        <mxCell id="mKIromGknHr_oH8rrsrf-12" value=":HireInfo" style="text;html=1;align=center;verticalAlign=middle;resizable=0;points=[];autosize=1;strokeColor=none;fillColor=none;" vertex="1" parent="1">
          <mxGeometry x="820" y="380" width="70" height="30" as="geometry" />
        </mxCell>
        <mxCell id="j6FFxCUQzqT89nJuvXjq-1" value="3:closeHireInfo()" style="text;html=1;resizable=0;autosize=1;align=left;verticalAlign=middle;points=[];fillColor=none;strokeColor=none;rounded=0;" vertex="1" parent="1">
          <mxGeometry x="365" y="147" width="110" height="30" as="geometry" />
        </mxCell>
        <mxCell id="j6FFxCUQzqT89nJuvXjq-3" value="" style="endArrow=classic;html=1;rounded=0;strokeWidth=2;" edge="1" parent="1">
          <mxGeometry width="50" height="50" relative="1" as="geometry">
            <mxPoint x="645" y="176" as="sourcePoint" />
            <mxPoint x="795" y="176" as="targetPoint" />
          </mxGeometry>
        </mxCell>
        <mxCell id="j6FFxCUQzqT89nJuvXjq-4" value="3.1:sendCloseHireInfo()" style="text;html=1;resizable=0;autosize=1;align=left;verticalAlign=middle;points=[];fillColor=none;strokeColor=none;rounded=0;" vertex="1" parent="1">
          <mxGeometry x="660" y="147" width="150" height="30" as="geometry" />
        </mxCell>
      </root>
    </mxGraphModel>
  </diagram>
  <diagram id="QopXFGVEs_CeYKZLCz9r" name="Class">
    <mxGraphModel grid="1" page="1" gridSize="10" guides="1" tooltips="1" connect="1" arrows="1" fold="1" pageScale="1" pageWidth="900" pageHeight="700" math="0" shadow="0">
      <root>
        <mxCell id="0" />
        <mxCell id="1" parent="0" />
        <mxCell id="usW56nNIq-wm0nR0QU7d-1" value="&amp;lt;&amp;lt;boundary&amp;gt;&amp;gt;&lt;br&gt;:&amp;nbsp;CloseHireInfoUI" style="swimlane;fontStyle=1;align=center;verticalAlign=top;childLayout=stackLayout;horizontal=1;startSize=40;horizontalStack=0;resizeParent=1;resizeParentMax=0;resizeLast=0;collapsible=1;marginBottom=0;whiteSpace=wrap;html=1;" vertex="1" parent="1">
          <mxGeometry x="40" y="40" width="230" height="100" as="geometry" />
        </mxCell>
        <mxCell id="usW56nNIq-wm0nR0QU7d-2" value="" style="line;strokeWidth=1;fillColor=none;align=left;verticalAlign=middle;spacingTop=-1;spacingLeft=3;spacingRight=3;rotatable=0;labelPosition=right;points=[];portConstraint=eastwest;strokeColor=inherit;" vertex="1" parent="usW56nNIq-wm0nR0QU7d-1">
          <mxGeometry y="40" width="230" height="20" as="geometry" />
        </mxCell>
        <mxCell id="usW56nNIq-wm0nR0QU7d-3" value="startInterface()&lt;br&gt;closeHireInfo()" style="text;strokeColor=none;fillColor=none;align=left;verticalAlign=top;spacingLeft=4;spacingRight=4;overflow=hidden;rotatable=0;points=[[0,0.5],[1,0.5]];portConstraint=eastwest;whiteSpace=wrap;html=1;" vertex="1" parent="usW56nNIq-wm0nR0QU7d-1">
          <mxGeometry y="60" width="230" height="40" as="geometry" />
        </mxCell>
        <mxCell id="usW56nNIq-wm0nR0QU7d-4" value="&amp;lt;&amp;lt;control&amp;gt;&amp;gt;&lt;br style=&quot;border-color: var(--border-color);&quot;&gt;:&amp;nbsp;CloseHireInfo" style="swimlane;fontStyle=1;align=center;verticalAlign=top;childLayout=stackLayout;horizontal=1;startSize=40;horizontalStack=0;resizeParent=1;resizeParentMax=0;resizeLast=0;collapsible=1;marginBottom=0;whiteSpace=wrap;html=1;" vertex="1" parent="1">
          <mxGeometry x="310" y="40" width="230" height="90" as="geometry" />
        </mxCell>
        <mxCell id="usW56nNIq-wm0nR0QU7d-5" value="" style="line;strokeWidth=1;fillColor=none;align=left;verticalAlign=middle;spacingTop=-1;spacingLeft=3;spacingRight=3;rotatable=0;labelPosition=right;points=[];portConstraint=eastwest;strokeColor=inherit;" vertex="1" parent="usW56nNIq-wm0nR0QU7d-4">
          <mxGeometry y="40" width="230" height="20" as="geometry" />
        </mxCell>
        <mxCell id="usW56nNIq-wm0nR0QU7d-6" value="sendCloseHireInfo()" style="text;strokeColor=none;fillColor=none;align=left;verticalAlign=top;spacingLeft=4;spacingRight=4;overflow=hidden;rotatable=0;points=[[0,0.5],[1,0.5]];portConstraint=eastwest;whiteSpace=wrap;html=1;" vertex="1" parent="usW56nNIq-wm0nR0QU7d-4">
          <mxGeometry y="60" width="230" height="30" as="geometry" />
        </mxCell>
        <mxCell id="mzutaSzuPCdDhPnVRqxr-1" value="&amp;lt;&amp;lt;boundary&amp;gt;&amp;gt;&lt;br&gt;: showClosedHireInfoUI" style="swimlane;fontStyle=1;align=center;verticalAlign=top;childLayout=stackLayout;horizontal=1;startSize=40;horizontalStack=0;resizeParent=1;resizeParentMax=0;resizeLast=0;collapsible=1;marginBottom=0;whiteSpace=wrap;html=1;" vertex="1" parent="1">
          <mxGeometry x="40" y="240" width="230" height="90" as="geometry" />
        </mxCell>
        <mxCell id="mzutaSzuPCdDhPnVRqxr-2" value="" style="line;strokeWidth=1;fillColor=none;align=left;verticalAlign=middle;spacingTop=-1;spacingLeft=3;spacingRight=3;rotatable=0;labelPosition=right;points=[];portConstraint=eastwest;strokeColor=inherit;" vertex="1" parent="mzutaSzuPCdDhPnVRqxr-1">
          <mxGeometry y="40" width="230" height="20" as="geometry" />
        </mxCell>
        <mxCell id="mzutaSzuPCdDhPnVRqxr-3" value="startInterface()" style="text;strokeColor=none;fillColor=none;align=left;verticalAlign=top;spacingLeft=4;spacingRight=4;overflow=hidden;rotatable=0;points=[[0,0.5],[1,0.5]];portConstraint=eastwest;whiteSpace=wrap;html=1;" vertex="1" parent="mzutaSzuPCdDhPnVRqxr-1">
          <mxGeometry y="60" width="230" height="30" as="geometry" />
        </mxCell>
        <mxCell id="mzutaSzuPCdDhPnVRqxr-4" value="&amp;lt;&amp;lt;control&amp;gt;&amp;gt;&lt;br&gt;: ShowClosedHireInfo" style="swimlane;fontStyle=1;align=center;verticalAlign=top;childLayout=stackLayout;horizontal=1;startSize=40;horizontalStack=0;resizeParent=1;resizeParentMax=0;resizeLast=0;collapsible=1;marginBottom=0;whiteSpace=wrap;html=1;" vertex="1" parent="1">
          <mxGeometry x="310" y="240" width="230" height="90" as="geometry" />
        </mxCell>
        <mxCell id="mzutaSzuPCdDhPnVRqxr-5" value="" style="line;strokeWidth=1;fillColor=none;align=left;verticalAlign=middle;spacingTop=-1;spacingLeft=3;spacingRight=3;rotatable=0;labelPosition=right;points=[];portConstraint=eastwest;strokeColor=inherit;" vertex="1" parent="mzutaSzuPCdDhPnVRqxr-4">
          <mxGeometry y="40" width="230" height="20" as="geometry" />
        </mxCell>
        <mxCell id="mzutaSzuPCdDhPnVRqxr-6" value="sortByClosedDate()" style="text;strokeColor=none;fillColor=none;align=left;verticalAlign=top;spacingLeft=4;spacingRight=4;overflow=hidden;rotatable=0;points=[[0,0.5],[1,0.5]];portConstraint=eastwest;whiteSpace=wrap;html=1;" vertex="1" parent="mzutaSzuPCdDhPnVRqxr-4">
          <mxGeometry y="60" width="230" height="30" as="geometry" />
        </mxCell>
        <mxCell id="JhLm1GcCBJ0ohKW0COPV-1" value="&amp;lt;&amp;lt;entity&amp;gt;&amp;gt;&lt;br style=&quot;border-color: var(--border-color);&quot;&gt;: HireInfo" style="swimlane;fontStyle=1;align=center;verticalAlign=top;childLayout=stackLayout;horizontal=1;startSize=40;horizontalStack=0;resizeParent=1;resizeParentMax=0;resizeLast=0;collapsible=1;marginBottom=0;whiteSpace=wrap;html=1;" vertex="1" parent="1">
          <mxGeometry x="570" y="40" width="230" height="120" as="geometry" />
        </mxCell>
        <mxCell id="JhLm1GcCBJ0ohKW0COPV-2" value="Task&lt;br&gt;HireNum&lt;br&gt;CloseDate&lt;br&gt;hireinfolistpointer" style="text;strokeColor=default;fillColor=none;align=left;verticalAlign=top;spacingLeft=4;spacingRight=4;overflow=hidden;rotatable=0;points=[[0,0.5],[1,0.5]];portConstraint=eastwest;whiteSpace=wrap;html=1;" vertex="1" parent="JhLm1GcCBJ0ohKW0COPV-1">
          <mxGeometry y="40" width="230" height="80" as="geometry" />
        </mxCell>
        <mxCell id="JhLm1GcCBJ0ohKW0COPV-3" value="getHireInfo()&lt;br&gt;setClose()" style="text;strokeColor=default;fillColor=none;align=left;verticalAlign=top;spacingLeft=4;spacingRight=4;overflow=hidden;rotatable=0;points=[[0,0.5],[1,0.5]];portConstraint=eastwest;whiteSpace=wrap;html=1;" vertex="1" parent="1">
          <mxGeometry x="570" y="160" width="230" height="60" as="geometry" />
        </mxCell>
        <mxCell id="JSnaVU86cpTvx7LkPnns-1" value="&amp;lt;&amp;lt;entity&amp;gt;&amp;gt;&lt;br style=&quot;border-color: var(--border-color);&quot;&gt;: HireInfo" style="swimlane;fontStyle=1;align=center;verticalAlign=top;childLayout=stackLayout;horizontal=1;startSize=40;horizontalStack=0;resizeParent=1;resizeParentMax=0;resizeLast=0;collapsible=1;marginBottom=0;whiteSpace=wrap;html=1;" vertex="1" parent="1">
          <mxGeometry x="570" y="240" width="230" height="120" as="geometry" />
        </mxCell>
        <mxCell id="JSnaVU86cpTvx7LkPnns-2" value="Task&lt;br&gt;HireNum&lt;br&gt;CloseDate&lt;br&gt;hireinfolistpointer" style="text;strokeColor=default;fillColor=none;align=left;verticalAlign=top;spacingLeft=4;spacingRight=4;overflow=hidden;rotatable=0;points=[[0,0.5],[1,0.5]];portConstraint=eastwest;whiteSpace=wrap;html=1;" vertex="1" parent="JSnaVU86cpTvx7LkPnns-1">
          <mxGeometry y="40" width="230" height="80" as="geometry" />
        </mxCell>
        <mxCell id="JSnaVU86cpTvx7LkPnns-3" value="getHireInfo()" style="text;strokeColor=default;fillColor=none;align=left;verticalAlign=top;spacingLeft=4;spacingRight=4;overflow=hidden;rotatable=0;points=[[0,0.5],[1,0.5]];portConstraint=eastwest;whiteSpace=wrap;html=1;" vertex="1" parent="1">
          <mxGeometry x="570" y="360" width="230" height="60" as="geometry" />
        </mxCell>
      </root>
    </mxGraphModel>
  </diagram>
</mxfile>
